<svg width="18" height="18" viewBox="0 0 18 18" fill="none" xmlns="http://www.w3.org/2000/svg">
<path d="M7.2 1.8C6.24522 1.8 5.32955 2.17928 4.65442 2.85442C3.97928 3.52955 3.6 4.44522 3.6 5.4C3.6 6.35478 3.97928 7.27045 4.65442 7.94558C5.32955 8.62072 6.24522 9 7.2 9C8.15478 9 9.07045 8.62072 9.74558 7.94558C10.4207 7.27045 10.8 6.35478 10.8 5.4C10.8 4.44522 10.4207 3.52955 9.74558 2.85442C9.07045 2.17928 8.15478 1.8 7.2 1.8ZM1.8 5.4C1.8 3.96783 2.36893 2.59432 3.38162 1.58162C4.39432 0.568927 5.76783 0 7.2 0C8.63217 0 10.0057 0.568927 11.0184 1.58162C12.0311 2.59432 12.6 3.96783 12.6 5.4C12.6 6.83217 12.0311 8.20568 11.0184 9.21838C10.0057 10.2311 8.63217 10.8 7.2 10.8C5.76783 10.8 4.39432 10.2311 3.38162 9.21838C2.36893 8.20568 1.8 6.83217 1.8 5.4ZM15.3 8.1C15.5387 8.1 15.7676 8.19482 15.9364 8.3636C16.1052 8.53239 16.2 8.7613 16.2 9V9.9H17.1C17.3387 9.9 17.5676 9.99482 17.7364 10.1636C17.9052 10.3324 18 10.5613 18 10.8C18 11.0387 17.9052 11.2676 17.7364 11.4364C17.5676 11.6052 17.3387 11.7 17.1 11.7H16.2V12.6C16.2 12.8387 16.1052 13.0676 15.9364 13.2364C15.7676 13.4052 15.5387 13.5 15.3 13.5C15.0613 13.5 14.8324 13.4052 14.6636 13.2364C14.4948 13.0676 14.4 12.8387 14.4 12.6V11.7H13.5C13.2613 11.7 13.0324 11.6052 12.8636 11.4364C12.6948 11.2676 12.6 11.0387 12.6 10.8C12.6 10.5613 12.6948 10.3324 12.8636 10.1636C13.0324 9.99482 13.2613 9.9 13.5 9.9H14.4V9C14.4 8.7613 14.4948 8.53239 14.6636 8.3636C14.8324 8.19482 15.0613 8.1 15.3 8.1ZM4.05 14.4C2.916 14.4 1.8 15.4917 1.8 17.1C1.8 17.3387 1.70518 17.5676 1.5364 17.7364C1.36761 17.9052 1.13869 18 0.9 18C0.661305 18 0.432387 17.9052 0.263604 17.7364C0.0948211 17.5676 0 17.3387 0 17.1C0 14.7312 1.7037 12.6 4.05 12.6H10.35C12.6963 12.6 14.4 14.7312 14.4 17.1C14.4 17.3387 14.3052 17.5676 14.1364 17.7364C13.9676 17.9052 13.7387 18 13.5 18C13.2613 18 13.0324 17.9052 12.8636 17.7364C12.6948 17.5676 12.6 17.3387 12.6 17.1C12.6 15.4917 11.484 14.4 10.35 14.4H4.05Z" fill="white"/>
</svg>
