<svg width="36" height="36" viewBox="0 0 36 36" fill="none" xmlns="http://www.w3.org/2000/svg">
<path d="M16 10C14.9391 10 13.9217 10.4214 13.1716 11.1716C12.4214 11.9217 12 12.9391 12 14C12 15.0609 12.4214 16.0783 13.1716 16.8284C13.9217 17.5786 14.9391 18 16 18C17.0609 18 18.0783 17.5786 18.8284 16.8284C19.5786 16.0783 20 15.0609 20 14C20 12.9391 19.5786 11.9217 18.8284 11.1716C18.0783 10.4214 17.0609 10 16 10ZM10 14C10 12.4087 10.6321 10.8826 11.7574 9.75736C12.8826 8.63214 14.4087 8 16 8C17.5913 8 19.1174 8.63214 20.2426 9.75736C21.3679 10.8826 22 12.4087 22 14C22 15.5913 21.3679 17.1174 20.2426 18.2426C19.1174 19.3679 17.5913 20 16 20C14.4087 20 12.8826 19.3679 11.7574 18.2426C10.6321 17.1174 10 15.5913 10 14ZM22 20C22 19.7348 22.1054 19.4804 22.2929 19.2929C22.4804 19.1054 22.7348 19 23 19H27C27.2652 19 27.5196 19.1054 27.7071 19.2929C27.8946 19.4804 28 19.7348 28 20C28 20.2652 27.8946 20.5196 27.7071 20.7071C27.5196 20.8946 27.2652 21 27 21H23C22.7348 21 22.4804 20.8946 22.2929 20.7071C22.1054 20.5196 22 20.2652 22 20ZM12.5 24C11.24 24 10 25.213 10 27C10 27.2652 9.89464 27.5196 9.70711 27.7071C9.51957 27.8946 9.26522 28 9 28C8.73478 28 8.48043 27.8946 8.29289 27.7071C8.10536 27.5196 8 27.2652 8 27C8 24.368 9.893 22 12.5 22H19.5C22.107 22 24 24.368 24 27C24 27.2652 23.8946 27.5196 23.7071 27.7071C23.5196 27.8946 23.2652 28 23 28C22.7348 28 22.4804 27.8946 22.2929 27.7071C22.1054 27.5196 22 27.2652 22 27C22 25.213 20.76 24 19.5 24H12.5Z" fill="#4B5563"/>
</svg>
