<svg width="24" height="24" viewBox="0 0 24 24" fill="none" xmlns="http://www.w3.org/2000/svg">
<path d="M12 16.8C11.3 16.8 10.6 16.53 10.07 16L3.55001 9.48001C3.41053 9.33888 3.33231 9.14844 3.33231 8.95001C3.33231 8.75158 3.41053 8.56115 3.55001 8.42001C3.84001 8.13001 4.32001 8.13001 4.61001 8.42001L11.13 14.94C11.61 15.42 12.39 15.42 12.87 14.94L19.39 8.42001C19.68 8.13001 20.16 8.13001 20.45 8.42001C20.74 8.71001 20.74 9.19001 20.45 9.48001L13.93 16C13.4 16.53 12.7 16.8 12 16.8Z" fill="white"/>
</svg>
