<svg width="36" height="36" viewBox="0 0 36 36" fill="none" xmlns="http://www.w3.org/2000/svg">
<path d="M23.4812 8.3082C23.2838 8.11086 23.0161 8 22.737 8C22.4579 8 22.1902 8.11086 21.9928 8.3082L19.5791 10.7219L18.218 9.36084C18.0206 9.1635 17.7529 9.05264 17.4738 9.05264C17.1947 9.05264 16.927 9.1635 16.7296 9.36084L10.4137 15.6767C10.222 15.8752 10.1159 16.1411 10.1183 16.4171C10.1207 16.6931 10.2314 16.9572 10.4265 17.1523C10.6217 17.3475 10.8857 17.4582 11.1617 17.4606C11.4377 17.463 11.7036 17.3569 11.9021 17.1651L17.4738 11.5935L18.0906 12.2103L15.6769 14.6241L8.30842 21.9926C8.111 22.1899 8.00006 22.4576 8 22.7368V26.9474C8 27.2265 8.1109 27.4943 8.30831 27.6917C8.50572 27.8891 8.77347 28 9.05264 28H13.2632C13.5424 27.9999 13.8101 27.889 14.0074 27.6916L21.3759 20.3231L27.6918 14.0072C27.8891 13.8098 28 13.5421 28 13.263C28 12.9839 27.8891 12.7162 27.6918 12.5188L23.4812 8.3082ZM20.3233 12.9546L22.737 10.5409L25.4591 13.263L20.6317 18.0904L17.9096 15.3683L20.3233 12.9546ZM10.1053 23.1726L16.4211 16.8567L19.1433 19.5789L12.8274 25.8947H10.1053V23.1726Z" fill="#4B5563"/>
</svg>
