<svg width="18" height="18" viewBox="0 0 18 18" fill="none" xmlns="http://www.w3.org/2000/svg">
<path d="M7.33341 2.33332C6.00733 2.33332 4.73556 2.8601 3.79788 3.79778C2.8602 4.73546 2.33341 6.00723 2.33341 7.33332C2.33341 8.6594 2.8602 9.93117 3.79788 10.8688C4.73556 11.8065 6.00733 12.3333 7.33341 12.3333C8.6595 12.3333 9.93127 11.8065 10.8689 10.8688C11.8066 9.93117 12.3334 8.6594 12.3334 7.33332C12.3334 6.00723 11.8066 4.73546 10.8689 3.79778C9.93127 2.8601 8.6595 2.33332 7.33341 2.33332ZM0.666748 7.33332C0.6669 6.27237 0.920263 5.22677 1.40578 4.28343C1.8913 3.3401 2.59495 2.52626 3.45825 1.90955C4.32156 1.29285 5.31958 0.891094 6.36938 0.737674C7.41918 0.584255 8.49043 0.683603 9.49411 1.02746C10.4978 1.37132 11.4049 1.94976 12.1401 2.71471C12.8753 3.47965 13.4172 4.40901 13.721 5.42555C14.0248 6.44208 14.0815 7.51644 13.8866 8.55932C13.6916 9.6022 13.2506 10.5835 12.6001 11.4216L17.0892 15.9108C17.241 16.068 17.325 16.2785 17.3231 16.497C17.3212 16.7155 17.2336 16.9245 17.0791 17.079C16.9246 17.2335 16.7156 17.3211 16.4971 17.323C16.2786 17.3249 16.0681 17.2409 15.9109 17.0891L11.4217 12.6C10.4363 13.3651 9.25593 13.8383 8.01489 13.9658C6.77384 14.0933 5.52191 13.8701 4.40145 13.3214C3.281 12.7727 2.33699 11.9206 1.67677 10.8621C1.01655 9.80349 0.666609 8.5809 0.666748 7.33332Z" fill="black"/>
</svg>
