<svg width="24" height="24" viewBox="0 0 24 24" fill="none" xmlns="http://www.w3.org/2000/svg">
<path d="M16.5 15.251C16.31 15.251 16.12 15.181 15.97 15.031L12.42 11.481L11.33 13.121C11.21 13.311 11 13.431 10.78 13.451C10.6699 13.4622 10.5586 13.4483 10.4547 13.4101C10.3507 13.372 10.2568 13.3108 10.18 13.231L6.98003 10.031C6.84055 9.88986 6.76233 9.69943 6.76233 9.50099C6.76233 9.30256 6.84055 9.11213 6.98003 8.97099C7.27003 8.68099 7.75003 8.68099 8.04003 8.97099L10.59 11.521L11.68 9.88099C11.8 9.70099 12 9.58099 12.23 9.55099C12.46 9.53099 12.68 9.61099 12.83 9.77099L17.03 13.971C17.32 14.261 17.32 14.741 17.03 15.031C16.88 15.181 16.69 15.251 16.5 15.251Z" fill="#CCCCCC"/>
<path d="M16.5 15.25H14.5C14.09 15.25 13.75 14.91 13.75 14.5C13.75 14.09 14.09 13.75 14.5 13.75H15.75V12.5C15.75 12.09 16.09 11.75 16.5 11.75C16.91 11.75 17.25 12.09 17.25 12.5V14.5C17.25 14.91 16.91 15.25 16.5 15.25Z" fill="#CCCCCC"/>
<path d="M15 22.75H9C3.57 22.75 1.25 20.43 1.25 15V9C1.25 3.57 3.57 1.25 9 1.25H15C20.43 1.25 22.75 3.57 22.75 9V15C22.75 20.43 20.43 22.75 15 22.75ZM9 2.75C4.39 2.75 2.75 4.39 2.75 9V15C2.75 19.61 4.39 21.25 9 21.25H15C19.61 21.25 21.25 19.61 21.25 15V9C21.25 4.39 19.61 2.75 15 2.75H9Z" fill="#CCCCCC"/>
</svg>
